<svg width="416" height="198" viewBox="0 0 416 198" fill="none" xmlns="http://www.w3.org/2000/svg">
<path d="M198.557 84.797C198.224 89.5907 197.475 92.0084 193.107 93.7591L193.44 96.4686C197.683 96.1351 200.637 96.1351 205.962 96.1351C219.939 96.1351 229.882 96.2602 237.827 96.677C239.034 91.008 239.907 85.6307 240.448 79.0863L237.494 78.5444C236.08 82.5878 234.998 84.8804 233.667 86.9646C232.045 89.2572 230.298 90.7996 226.47 91.3415C223.517 91.8 219.814 91.8833 214.906 91.8833C209.997 91.8833 208.125 90.9246 207.917 85.5474C207.792 83.3798 207.584 77.4606 207.584 73.6257V58.8695C211.203 58.8695 218.941 58.9945 222.435 59.4114C227.344 60.0783 228.883 61.704 230.506 66.7478L233.126 66.2059C232.794 61.9541 232.794 59.4114 232.794 56.7019C232.794 53.9924 232.794 51.5747 233.126 47.3229L230.506 46.781C228.883 51.8248 227.344 53.5756 222.435 54.1175C218.941 54.4509 211.328 54.6594 207.584 54.6594V40.6951C207.584 36.7768 207.584 32.8168 207.917 29.4404C208.25 25.0636 208.874 24.1882 214.032 24.1882C219.19 24.1882 220.688 24.3133 223.434 24.7301C225.514 25.0636 228.01 25.9389 229.674 27.6897C231.296 29.4404 232.502 31.733 233.917 35.7764L237.078 35.2345C236.746 29.232 236.33 25.1886 235.539 19.6029C231.296 19.9364 227.885 19.9364 223.434 19.9364H203.341C200.595 19.9364 197.683 19.9364 193.398 19.6029L193.066 22.3541C197.434 24.1048 198.182 26.5225 198.515 31.3162C198.848 34.901 198.848 39.7364 198.848 43.5714V72.6252C198.848 76.4602 198.848 81.2539 198.515 84.8804L198.557 84.797Z" fill="#1A0C6D"/>
<path d="M253.51 62.3293L246.979 80.4619C244.358 87.5482 243.61 89.9659 243.61 92.4669C243.61 94.968 245.773 97.4691 248.31 97.4691C252.138 97.4691 257.171 94.4261 262.954 83.1714L260.79 81.6291C255.424 89.2573 253.261 90.4661 252.054 90.4661C250.848 90.4661 250.973 89.9242 250.973 89.3823C250.973 88.8404 251.181 88.0901 252.387 84.797L259.501 64.7053C261.123 60.2034 262.87 55.4097 262.87 51.9082C262.87 48.4067 260.79 46.5726 258.502 46.5726C254.883 46.5726 250.432 50.7411 244.192 59.7865L246.272 61.6623C251.306 55.7432 253.469 54.0341 254.55 54.0341C255.632 54.0341 255.424 54.3676 255.424 55.0345C255.424 56.1183 255.091 58.2025 253.552 62.371L253.51 62.3293Z" fill="#1A0C6D"/>
<path d="M261.914 28.1482C265.2 28.1482 267.696 25.6472 267.696 22.3541C267.696 19.061 265.2 16.56 261.914 16.56C258.627 16.56 256.131 19.061 256.131 22.3541C256.131 25.6472 258.627 28.1482 261.914 28.1482Z" fill="#1A0C6D"/>
<path d="M309.962 80.5869C309.962 72.3751 304.845 66.0808 294.237 65.7473L281.05 65.2888C276.141 65.0804 273.645 62.9962 273.645 59.8282C273.645 56.6602 274.394 54.8261 277.805 52.2C280.966 54.8261 284.586 56.2433 289.494 56.2433C299.104 56.2433 306.966 48.6151 306.966 37.9023C306.966 27.1895 306.01 30.149 303.347 27.1895H313.581L314.454 23.1461L313.581 21.2703C309.754 21.6038 305.926 21.7288 303.222 21.7288C296.982 21.7288 295.36 19.5612 289.037 19.5612C279.427 19.5612 271.232 27.648 271.232 37.9023C271.232 48.1566 272.438 46.1141 274.934 49.4905C269.36 53.7423 267.405 58.1191 267.405 62.3709C267.405 66.6227 270.566 71.1246 275.267 72.7503C269.027 77.0021 266.531 81.0454 266.531 86.1726C266.531 93.5924 272.771 99.053 285.085 99.053C297.398 99.053 309.962 90.4244 309.962 80.5869ZM288.829 23.8964C294.819 23.8964 298.646 29.357 298.646 38.4025C298.646 47.448 295.152 51.8248 289.453 51.8248C283.754 51.8248 279.635 46.781 279.635 37.1937C279.635 28.0231 283.462 23.8547 288.829 23.8547V23.8964ZM286.832 92.9671C277.68 92.9671 273.645 89.0488 273.645 84.3385C273.645 79.6282 275.184 77.3356 279.011 73.7507C283.504 74.0842 287.414 74.0842 292.323 74.0842C300.518 74.0842 304.013 77.3772 304.013 82.5044C304.013 87.6316 299.437 92.9671 286.874 92.9671H286.832Z" fill="#1A0C6D"/>
<path d="M334.298 99.0947C343.99 99.0947 350.438 92.3002 353.725 84.1301L351.104 82.5044C346.611 88.9238 342.368 91.3415 335.379 91.3415C328.39 91.3415 319.862 83.7132 319.862 72.4585C319.862 61.2038 319.862 69.624 320.07 68.2901H353.683C353.891 67.4147 353.891 66.6644 353.891 65.789C353.891 55.2846 345.904 47.5313 335.421 47.5313C321.901 47.5313 311.501 58.9945 311.501 74.1676C311.501 89.3406 320.57 99.053 334.214 99.053L334.298 99.0947ZM333.091 52.4501C339.206 52.4501 344.24 56.4934 344.323 63.9132H320.861C322.192 57.4522 326.435 52.4501 333.091 52.4501Z" fill="#1A0C6D"/>
<path d="M375.149 65.6943C371.114 64.0686 370.448 62.3179 370.115 57.816C369.907 54.4396 369.907 50.6046 369.907 47.2282V37.5158C369.907 30.5128 374.608 25.3857 382.138 25.3857C389.667 25.3857 391.622 29.5541 391.622 35.64V47.2282C391.622 50.6046 391.622 54.4396 391.29 57.816C390.957 62.3179 390.416 64.0269 386.381 65.6943L386.714 68.1954C390.541 67.8619 392.954 67.8619 395.45 67.8619C397.946 67.8619 400.358 67.8619 404.186 68.1954L404.518 65.6943C400.483 64.0686 399.818 62.3179 399.485 57.816C399.277 54.4396 399.277 50.6046 399.277 47.2282V34.6812C399.277 30.3044 398.403 27.5949 396.989 25.0522C394.368 20.8004 389.875 18.2577 384.55 18.2577C379.226 18.2577 372.861 22.6345 369.907 28.1785L369.782 28.0535C369.907 25.3023 370.115 22.3844 370.448 18.8829L368.16 18.0076C364.333 21.509 361.629 23.2598 356.595 25.6358V27.9284C360.547 28.6787 361.629 29.6791 361.962 34.1394C362.294 37.5158 362.294 41.0173 362.294 44.3937V47.1448C362.294 50.5212 362.294 54.3562 361.962 57.7326C361.629 62.2345 361.088 63.9436 357.053 65.6109L357.386 68.112C361.213 67.7785 363.626 67.7785 366.122 67.7785C368.618 67.7785 371.03 67.7785 374.858 68.112L375.19 65.6109L375.149 65.6943Z" fill="#1A0C6D"/>
<path d="M233.667 169.863C232.045 172.364 229.965 174.115 226.013 174.865C222.851 175.407 219.773 175.407 214.864 175.407C209.955 175.407 208.416 174.448 207.875 169.071C207.667 166.904 207.542 160.984 207.542 157.149V127.012C207.542 123.177 207.542 118.383 207.875 114.757C208.208 109.963 208.957 107.545 213.325 105.795L212.992 103.043C208.749 103.377 205.795 103.377 203.05 103.377C200.304 103.377 197.6 103.377 193.315 103.043L192.982 105.795C197.35 107.545 198.099 109.963 198.432 114.757C198.765 118.341 198.765 123.177 198.765 127.012V156.066C198.765 159.901 198.765 164.694 198.432 168.321C198.099 173.115 197.35 175.532 192.982 177.283L193.315 180.034C197.558 179.701 200.512 179.701 205.878 179.701C219.856 179.701 229.466 179.826 238.077 180.243C239.283 174.115 240.24 168.571 240.822 161.568L237.661 161.026C236.246 165.278 235.04 167.779 233.626 169.863H233.667Z" fill="#1A0C6D"/>
<path d="M275.85 168.196C275.642 164.819 275.642 161.651 275.642 158.275V147.812C275.642 142.894 274.102 138.517 272.355 136.016C269.734 132.181 265.574 130.347 260.25 130.347C254.925 130.347 248.352 134.39 246.272 138.225L248.352 141.726C252.054 138.767 255.133 137.266 258.835 137.266C262.538 137.266 264.077 138.142 265.699 140.309C267.114 142.185 267.987 144.811 267.987 148.187V153.523C262.413 154.94 255.216 157.566 251.181 160.192C246.938 162.944 244.317 165.987 244.317 171.114C244.317 176.241 248.685 181.493 255.674 181.493C262.662 181.493 265.366 178.742 268.32 172.114H268.528C269.526 177.033 272.355 180.326 279.885 180.618L281.299 176.241C277.805 174.615 276.058 171.864 275.85 168.279V168.196ZM267.987 163.319C267.987 170.864 261.997 174.782 257.504 174.782C253.011 174.782 252.054 172.156 252.054 169.196C252.054 166.237 254.218 162.985 261.664 159.817C263.744 158.942 265.699 158.067 267.987 157.316V163.319Z" fill="#1A0C6D"/>
<path d="M329.056 114.34C331.136 110.171 332.342 108.212 334.298 106.461L333.965 103.96C330.803 104.294 329.264 104.294 326.851 104.294C324.438 104.294 322.608 104.294 319.446 103.96L318.989 106.461C322.275 108.212 322.816 109.963 322.816 112.256C322.816 114.548 322.4 116.841 319.446 123.719L312.25 140.643L305.469 123.635C302.182 115.424 301.766 113.381 301.766 110.838C301.766 108.296 302.64 107.545 305.053 106.461L304.72 103.96C301.558 104.169 299.562 104.294 297.19 104.294C294.819 104.294 291.533 104.169 288.371 103.96L287.914 106.461C290.534 108.212 291.283 109.213 292.947 112.797C294.694 116.716 296.109 120.759 297.315 123.844L308.131 150.605L300.269 167.654C298.646 171.155 296.982 172.906 294.694 172.906C292.406 172.906 291.949 172.364 289.869 172.364C287.789 172.364 285.709 174.448 285.709 176.824C285.709 179.2 287.872 181.41 290.826 181.41C293.779 181.41 297.274 179.784 299.104 177.908C301.267 175.616 303.347 172.239 305.427 167.529L324.771 123.844C326.102 120.884 327.392 117.633 329.014 114.34H329.056Z" fill="#1A0C6D"/>
<path d="M345.072 130.096C331.552 130.096 321.152 141.56 321.152 156.733C321.152 171.906 330.221 181.618 343.866 181.618C357.51 181.618 360.006 174.824 363.293 166.653L360.672 165.028C356.179 171.447 351.936 173.865 344.947 173.865C337.958 173.865 329.43 166.237 329.43 154.982C329.43 143.727 329.43 152.147 329.638 150.813H363.251C363.459 149.938 363.459 149.188 363.459 148.312C363.459 137.808 355.472 130.055 345.03 130.055L345.072 130.096ZM330.429 146.478C331.76 140.017 336.003 135.015 342.659 135.015C349.315 135.015 353.808 139.059 353.891 146.478H330.429Z" fill="#1A0C6D"/>
<path d="M397.696 130.263C392.579 130.263 387.546 134.432 384.592 141.643L384.467 141.518C384.592 138.767 384.8 134.432 385.133 130.93L382.845 130.055C379.018 133.556 376.314 135.307 371.28 137.683V139.976C375.232 140.726 376.314 141.726 376.646 146.187C376.979 149.563 376.979 153.064 376.979 156.441V159.192C376.979 162.568 376.979 166.403 376.646 169.78C376.314 174.282 375.773 175.991 371.738 177.658L372.07 180.159C375.898 179.826 378.31 179.826 380.806 179.826C383.302 179.826 386.797 179.826 390.624 180.159L390.957 177.658C386.173 176.241 385.174 174.282 384.842 169.78C384.634 166.403 384.634 162.568 384.634 159.192V154.065C384.634 143.602 388.877 137.558 394.035 137.558C396.656 137.558 397.987 139.517 400.816 139.517C403.645 139.517 404.726 138.642 404.726 135.682C404.726 132.723 402.189 130.221 397.738 130.221L397.696 130.263Z" fill="#1A0C6D"/>
<path d="M152.048 18.9777H131.955V59.2863H152.048V18.9777Z" fill="#1A0C6D"/>
<path d="M111.862 18.9777H92.5184H91.728H72.4256V39.1111H91.728V99.5532H111.862H131.955V59.2863H111.862V18.9777Z" fill="#1A0C6D"/>
<path d="M71.6352 139.862H51.5008V99.5532V18.9777H11.3152V99.5532V180.171H51.5008H71.6352H91.728H111.862H131.955V139.862H111.862H91.728V99.5532H71.6352V139.862Z" fill="#1A0C6D"/>
</svg>
